<svg width="12" height="22" viewBox="0 0 12 22" fill="none" xmlns="http://www.w3.org/2000/svg">
<path fill-rule="evenodd" clip-rule="evenodd" d="M0.74222 0.885287C0.818497 0.808816 0.909112 0.748145 1.00887 0.706748C1.10864 0.665352 1.21558 0.644043 1.32359 0.644043C1.4316 0.644043 1.53855 0.665352 1.63831 0.706748C1.73807 0.748145 1.82869 0.808816 1.90497 0.885287L11.7588 10.7391C11.8352 10.8154 11.8959 10.906 11.9373 11.0057C11.9787 11.1055 12 11.2124 12 11.3204C12 11.4285 11.9787 11.5354 11.9373 11.6352C11.8959 11.7349 11.8352 11.8255 11.7588 11.9018L1.90497 21.7556C1.75078 21.9098 1.54165 21.9964 1.32359 21.9964C1.10554 21.9964 0.896409 21.9098 0.74222 21.7556C0.58803 21.6014 0.501406 21.3923 0.501406 21.1742C0.501406 20.9562 0.58803 20.7471 0.74222 20.5929L10.0163 11.3204L0.74222 2.04803C0.665749 1.97176 0.605077 1.88114 0.563681 1.78138C0.522284 1.68162 0.500977 1.57467 0.500977 1.46666C0.500977 1.35865 0.522284 1.2517 0.563681 1.15194C0.605077 1.05218 0.665749 0.961564 0.74222 0.885287Z" fill="#939295"/>
</svg>
