<svg width="14" height="16" viewBox="0 0 14 16" xmlns="http://www.w3.org/2000/svg">
<path d="M7 0C7.26268 0 7.51459 0.104479 7.70033 0.290452C7.88607 0.476426 7.99042 0.72866 7.99042 0.991667V6.21577L12.5087 3.60372C12.6214 3.53758 12.746 3.4944 12.8754 3.47669C13.0048 3.45897 13.1365 3.46706 13.2627 3.50049C13.389 3.53391 13.5074 3.59202 13.6112 3.67146C13.715 3.7509 13.802 3.85011 13.8673 3.96337C13.9326 4.07663 13.9749 4.2017 13.9917 4.33139C14.0086 4.46108 13.9996 4.59282 13.9654 4.71904C13.9312 4.84525 13.8724 4.96344 13.7923 5.0668C13.7123 5.17016 13.6127 5.25664 13.4991 5.32128L8.98083 7.93333L13.4991 10.5454C13.6127 10.61 13.7123 10.6965 13.7923 10.7999C13.8724 10.9032 13.9312 11.0214 13.9654 11.1476C13.9996 11.2738 14.0086 11.4056 13.9917 11.5353C13.9749 11.665 13.9326 11.79 13.8673 11.9033C13.802 12.0166 13.715 12.1158 13.6112 12.1952C13.5074 12.2746 13.389 12.3328 13.2627 12.3662C13.1365 12.3996 13.0048 12.4077 12.8754 12.39C12.746 12.3723 12.6214 12.3291 12.5087 12.263L7.99042 9.6509V14.875C7.99042 15.138 7.88607 15.3902 7.70033 15.5762C7.51459 15.7622 7.26268 15.8667 7 15.8667C6.73733 15.8667 6.48541 15.7622 6.29967 15.5762C6.11393 15.3902 6.00959 15.138 6.00959 14.875V9.6509L1.49131 12.263C1.37863 12.3291 1.254 12.3723 1.12459 12.39C0.995174 12.4077 0.86354 12.3996 0.737263 12.3662C0.610986 12.3328 0.49256 12.2746 0.388802 12.1952C0.285045 12.1158 0.198006 12.0166 0.132697 11.9033C0.0673873 11.79 0.0250975 11.665 0.00826178 11.5353C-0.0085739 11.4056 0.000377182 11.2738 0.0345997 11.1476C0.0688223 11.0214 0.12764 10.9032 0.207668 10.7999C0.287695 10.6965 0.38735 10.61 0.500897 10.5454L5.01917 7.93333L0.500897 5.32128C0.275274 5.18885 0.111128 4.97243 0.0442784 4.71926C-0.0225708 4.46609 0.0133046 4.19673 0.144076 3.96995C0.274847 3.74316 0.489897 3.57738 0.742296 3.50877C0.994696 3.44015 1.26395 3.47429 1.49131 3.60372L6.00959 6.21577V0.991667C6.00959 0.72866 6.11393 0.476426 6.29967 0.290452C6.48541 0.104479 6.73733 0 7 0Z"/>
</svg>
