<svg width="14" height="14" viewBox="0 0 14 14" xmlns="http://www.w3.org/2000/svg">
<path d="M9.31252 0.603882C9.33054 0.545301 9.33684 0.483747 9.33107 0.422732C9.32529 0.361717 9.30756 0.302436 9.27887 0.248275C9.25019 0.194114 9.21112 0.146133 9.16389 0.107071C9.11667 0.0680099 9.06221 0.0386329 9.00363 0.0206177C8.94505 0.00260246 8.88349 -0.00369812 8.82248 0.00207562C8.76146 0.00784936 8.70218 0.0255844 8.64802 0.0542681C8.59386 0.0829518 8.54588 0.122022 8.50682 0.169249C8.46776 0.216476 8.43838 0.270934 8.42036 0.329514L4.68748 12.4614C4.65109 12.5797 4.6632 12.7076 4.72113 12.817C4.77906 12.9264 4.87806 13.0083 4.99637 13.0447C5.11468 13.081 5.2426 13.0689 5.35198 13.011C5.46136 12.9531 5.54325 12.8541 5.57964 12.7358L9.31252 0.603882ZM4.06408 2.936C4.10754 2.97935 4.14201 3.03084 4.16554 3.08753C4.18906 3.14422 4.20117 3.20499 4.20117 3.26636C4.20117 3.32774 4.18906 3.38851 4.16554 3.4452C4.14201 3.50189 4.10754 3.55338 4.06408 3.59673L1.12723 6.53264L4.06408 9.46856C4.1517 9.55618 4.20092 9.67501 4.20092 9.79892C4.20092 9.92283 4.1517 10.0417 4.06408 10.1293C3.97647 10.2169 3.85763 10.2661 3.73372 10.2661C3.60981 10.2661 3.49098 10.2169 3.40336 10.1293L0.137085 6.863C0.0936307 6.81966 0.0591548 6.76817 0.0356316 6.71148C0.0121084 6.65479 0 6.59402 0 6.53264C0 6.47127 0.0121084 6.41049 0.0356316 6.35381C0.0591548 6.29712 0.0936307 6.24563 0.137085 6.20228L3.40336 2.936C3.44671 2.89255 3.4982 2.85807 3.55489 2.83455C3.61157 2.81103 3.67235 2.79892 3.73372 2.79892C3.7951 2.79892 3.85587 2.81103 3.91256 2.83455C3.96925 2.85807 4.02074 2.89255 4.06408 2.936ZM9.93592 2.936C9.89246 2.97935 9.85799 3.03084 9.83446 3.08753C9.81094 3.14422 9.79883 3.20499 9.79883 3.26636C9.79883 3.32774 9.81094 3.38851 9.83446 3.4452C9.85799 3.50189 9.89246 3.55338 9.93592 3.59673L12.8728 6.53264L9.93592 9.46856C9.89253 9.51194 9.85812 9.56345 9.83464 9.62013C9.81116 9.67681 9.79908 9.73757 9.79908 9.79892C9.79908 9.86027 9.81116 9.92103 9.83464 9.97771C9.85812 10.0344 9.89253 10.0859 9.93592 10.1293C9.9793 10.1727 10.0308 10.2071 10.0875 10.2306C10.1442 10.254 10.2049 10.2661 10.2663 10.2661C10.3276 10.2661 10.3884 10.254 10.4451 10.2306C10.5018 10.2071 10.5533 10.1727 10.5966 10.1293L13.8629 6.863C13.9064 6.81966 13.9408 6.76817 13.9644 6.71148C13.9879 6.65479 14 6.59402 14 6.53264C14 6.47127 13.9879 6.41049 13.9644 6.35381C13.9408 6.29712 13.9064 6.24563 13.8629 6.20228L10.5966 2.936C10.5533 2.89255 10.5018 2.85807 10.4451 2.83455C10.3884 2.81103 10.3277 2.79892 10.2663 2.79892C10.2049 2.79892 10.1441 2.81103 10.0874 2.83455C10.0308 2.85807 9.97926 2.89255 9.93592 2.936Z"/>
</svg>