<svg width="17" height="15" viewBox="0 0 17 15" xmlns="http://www.w3.org/2000/svg">
<path d="M0.507192 9.92798C0.641708 9.92798 0.770715 9.98142 0.865832 10.0765C0.960949 10.1716 1.01438 10.3007 1.01438 10.4352V12.9711C1.01438 13.2402 1.12126 13.4982 1.31149 13.6884C1.50173 13.8786 1.75974 13.9855 2.02877 13.9855H14.2014C14.4704 13.9855 14.7284 13.8786 14.9187 13.6884C15.1089 13.4982 15.2158 13.2402 15.2158 12.9711V10.4352C15.2158 10.3007 15.2692 10.1716 15.3643 10.0765C15.4594 9.98142 15.5884 9.92798 15.723 9.92798C15.8575 9.92798 15.9865 9.98142 16.0816 10.0765C16.1767 10.1716 16.2302 10.3007 16.2302 10.4352V12.9711C16.2302 13.5092 16.0164 14.0252 15.6359 14.4057C15.2555 14.7862 14.7395 14.9999 14.2014 14.9999H2.02877C1.49071 14.9999 0.974681 14.7862 0.594213 14.4057C0.213745 14.0252 0 13.5092 0 12.9711V10.4352C0 10.3007 0.0534362 10.1716 0.148553 10.0765C0.24367 9.98142 0.372677 9.92798 0.507192 9.92798Z"/>
<path d="M7.75598 11.9102C7.8031 11.9574 7.85907 11.9949 7.92068 12.0204C7.9823 12.046 8.04836 12.0592 8.11507 12.0592C8.18179 12.0592 8.24785 12.046 8.30946 12.0204C8.37108 11.9949 8.42705 11.9574 8.47417 11.9102L11.5173 8.867C11.6126 8.77177 11.6661 8.6426 11.6661 8.50791C11.6661 8.37323 11.6126 8.24406 11.5173 8.14882C11.4221 8.05358 11.2929 8.00008 11.1582 8.00008C11.0235 8.00008 10.8944 8.05358 10.7991 8.14882L8.62227 10.3267V1.40722C8.62227 1.2727 8.56883 1.14369 8.47371 1.04858C8.3786 0.953461 8.24959 0.900024 8.11507 0.900024C7.98056 0.900024 7.85155 0.953461 7.75644 1.04858C7.66132 1.14369 7.60788 1.2727 7.60788 1.40722L7.60788 10.3267L5.43101 8.14882C5.33578 8.05358 5.20661 8.00008 5.07192 8.00008C4.93723 8.00008 4.80807 8.05358 4.71283 8.14882C4.61759 8.24406 4.56409 8.37323 4.56409 8.50791C4.56409 8.6426 4.61759 8.77177 4.71283 8.867L7.75598 11.9102Z"/>
</svg>