<svg width="14" height="14" viewBox="0 0 14 14" xmlns="http://www.w3.org/2000/svg">
<path d="M7.00001 4.15975C6.62702 4.15975 6.25769 4.23322 5.91309 4.37595C5.5685 4.51869 5.25539 4.7279 4.99165 4.99164C4.72791 5.25538 4.5187 5.56849 4.37596 5.91308C4.23323 6.25768 4.15976 6.62701 4.15976 7C4.15976 7.37299 4.23323 7.74232 4.37596 8.08692C4.5187 8.43151 4.72791 8.74462 4.99165 9.00836C5.25539 9.2721 5.5685 9.48131 5.91309 9.62405C6.25769 9.76678 6.62702 9.84025 7.00001 9.84025C7.75329 9.84025 8.47572 9.54101 9.00837 9.00836C9.54102 8.47571 9.84026 7.75328 9.84026 7C9.84026 6.24672 9.54102 5.52429 9.00837 4.99164C8.47572 4.45899 7.75329 4.15975 7.00001 4.15975ZM5.03476 7C5.03476 6.47878 5.24181 5.97891 5.61037 5.61036C5.97892 5.2418 6.47879 5.03475 7.00001 5.03475C7.52123 5.03475 8.0211 5.2418 8.38965 5.61036C8.75821 5.97891 8.96526 6.47878 8.96526 7C8.96526 7.52122 8.75821 8.02109 8.38965 8.38964C8.0211 8.7582 7.52123 8.96525 7.00001 8.96525C6.47879 8.96525 5.97892 8.7582 5.61037 8.38964C5.24181 8.02109 5.03476 7.52122 5.03476 7Z"/>
<path d="M8.57155 1.17519C8.11043 -0.391062 5.88968 -0.391062 5.42855 1.17519L5.3463 1.45431C5.3141 1.56365 5.25784 1.66439 5.18164 1.74915C5.10544 1.83392 5.01125 1.90055 4.90595 1.94418C4.80065 1.98781 4.68693 2.00732 4.57311 2.00129C4.45929 1.99526 4.34827 1.96383 4.24818 1.90931L3.99268 1.76931C2.55768 0.988813 0.988801 2.55856 1.77018 3.99269L1.9093 4.24819C1.96382 4.34828 1.99525 4.45931 2.00128 4.57312C2.00731 4.68694 1.9878 4.80067 1.94417 4.90596C1.90054 5.01126 1.8339 5.10546 1.74914 5.18165C1.66437 5.25785 1.56363 5.31411 1.4543 5.34631L1.17518 5.42856C-0.391074 5.88969 -0.391074 8.11044 1.17518 8.57156L1.4543 8.65381C1.56363 8.68602 1.66437 8.74228 1.74914 8.81847C1.8339 8.89467 1.90054 8.98887 1.94417 9.09416C1.9878 9.19946 2.00731 9.31319 2.00128 9.427C1.99525 9.54082 1.96382 9.65185 1.9093 9.75194L1.7693 10.0074C0.988801 11.4424 2.55768 13.0122 3.99268 12.2299L4.24818 12.0908C4.34827 12.0363 4.45929 12.0049 4.57311 11.9988C4.68693 11.9928 4.80065 12.0123 4.90595 12.0559C5.01125 12.0996 5.10544 12.1662 5.18164 12.251C5.25784 12.3357 5.3141 12.4365 5.3463 12.5458L5.42855 12.8249C5.88968 14.3912 8.11043 14.3912 8.57155 12.8249L8.6538 12.5458C8.686 12.4365 8.74227 12.3357 8.81846 12.251C8.89466 12.1662 8.98886 12.0996 9.09415 12.0559C9.19945 12.0123 9.31317 11.9928 9.42699 11.9988C9.54081 12.0049 9.65183 12.0363 9.75193 12.0908L10.0074 12.2308C11.4424 13.0122 13.0122 11.4416 12.2299 10.0074L12.0908 9.75194C12.0363 9.65185 12.0049 9.54082 11.9988 9.427C11.9928 9.31319 12.0123 9.19946 12.0559 9.09416C12.0996 8.98887 12.1662 8.89467 12.251 8.81847C12.3357 8.74228 12.4365 8.68602 12.5458 8.65381L12.8249 8.57156C14.3912 8.11044 14.3912 5.88969 12.8249 5.42856L12.5458 5.34631C12.4365 5.31411 12.3357 5.25785 12.251 5.18165C12.1662 5.10546 12.0996 5.01126 12.0559 4.90596C12.0123 4.80067 11.9928 4.68694 11.9988 4.57312C12.0049 4.45931 12.0363 4.34828 12.0908 4.24819L12.2308 3.99269C13.0122 2.55769 11.4416 0.988813 10.0074 1.77019L9.75193 1.90931C9.65183 1.96383 9.54081 1.99526 9.42699 2.00129C9.31317 2.00732 9.19945 1.98781 9.09415 1.94418C8.98886 1.90055 8.89466 1.83392 8.81846 1.74915C8.74227 1.66439 8.686 1.56365 8.6538 1.45431L8.57155 1.17519ZM6.26768 1.42281C6.48293 0.692188 7.51718 0.692188 7.73243 1.42281L7.81468 1.70194C7.88382 1.93651 8.00458 2.15264 8.16811 2.33447C8.33164 2.51631 8.53379 2.65924 8.75974 2.75279C8.98569 2.84635 9.22972 2.88815 9.47392 2.87513C9.71813 2.86211 9.95633 2.79461 10.1711 2.67756L10.4257 2.53756C11.0942 2.17444 11.8257 2.90506 11.4617 3.57444L11.3226 3.82994C11.2057 4.04469 11.1383 4.28286 11.1255 4.52701C11.1126 4.77116 11.1545 5.0151 11.2481 5.24095C11.3418 5.4668 11.4847 5.66884 11.6666 5.83227C11.8484 5.99569 12.0645 6.11636 12.2991 6.18544L12.5773 6.26769C13.3079 6.48294 13.3079 7.51719 12.5773 7.73244L12.2982 7.81469C12.0636 7.88383 11.8475 8.00459 11.6656 8.16812C11.4838 8.33165 11.3409 8.5338 11.2473 8.75975C11.1538 8.98571 11.112 9.22973 11.125 9.47393C11.138 9.71814 11.2055 9.95634 11.3226 10.1711L11.4626 10.4257C11.8257 11.0942 11.0951 11.8257 10.4257 11.4617L10.1711 11.3226C9.95627 11.2055 9.71801 11.1381 9.47376 11.1251C9.2295 11.1121 8.98545 11.154 8.75948 11.2477C8.53352 11.3413 8.33138 11.4843 8.1679 11.6663C8.00441 11.8482 7.88372 12.0644 7.81468 12.2991L7.73243 12.5773C7.51718 13.3079 6.48293 13.3079 6.26768 12.5773L6.18543 12.2982C6.11625 12.0637 5.99551 11.8477 5.83204 11.666C5.66857 11.4842 5.46652 11.3414 5.24068 11.2478C5.01484 11.1543 4.77094 11.1124 4.52684 11.1254C4.28273 11.1383 4.04462 11.2057 3.82993 11.3226L3.57443 11.4626C2.90593 11.8257 2.17443 11.0951 2.53843 10.4257L2.67755 10.1711C2.79476 9.9563 2.8624 9.71803 2.8755 9.47372C2.8886 9.22941 2.84684 8.98526 2.75328 8.7592C2.65971 8.53314 2.51672 8.33089 2.33479 8.1673C2.15287 8.00371 1.93662 7.88293 1.70193 7.81381L1.4228 7.73156C0.692176 7.51631 0.692176 6.48206 1.4228 6.26681L1.70193 6.18456C1.93626 6.11536 2.15215 5.99464 2.3338 5.83123C2.51545 5.66782 2.65827 5.46586 2.7518 5.24014C2.84533 5.01441 2.8872 4.77063 2.87435 4.52663C2.86151 4.28263 2.79426 4.04459 2.67755 3.82994L2.53755 3.57444C2.17443 2.90594 2.90505 2.17444 3.57443 2.53844L3.82993 2.67756C4.04462 2.79444 4.28273 2.86181 4.52684 2.87475C4.77094 2.88768 5.01484 2.84584 5.24068 2.7523C5.46652 2.65876 5.66857 2.51589 5.83204 2.33414C5.99551 2.1524 6.11625 1.93639 6.18543 1.70194L6.26768 1.42281Z"/>
</svg>