<svg width="14" height="14" viewBox="0 0 14 14" xmlns="http://www.w3.org/2000/svg">
<path fill-rule="evenodd" clip-rule="evenodd" d="M9.05996 5.37759C9.10071 5.41823 9.13303 5.46652 9.15509 5.51967C9.17715 5.57283 9.1885 5.62982 9.1885 5.68737C9.1885 5.74492 9.17715 5.80191 9.15509 5.85507C9.13303 5.90822 9.10071 5.95651 9.05996 5.99715L6.4347 8.62241C6.39405 8.66316 6.34577 8.69549 6.29261 8.71755C6.23945 8.73961 6.18247 8.75096 6.12491 8.75096C6.06736 8.75096 6.01038 8.73961 5.95722 8.71755C5.90406 8.69549 5.85578 8.66316 5.81513 8.62241L4.5025 7.30978C4.46182 7.2691 4.42955 7.22081 4.40753 7.16765C4.38552 7.1145 4.37419 7.05753 4.37419 7C4.37419 6.94247 4.38552 6.8855 4.40753 6.83235C4.42955 6.7792 4.46182 6.7309 4.5025 6.69022C4.54318 6.64954 4.59148 6.61727 4.64463 6.59525C4.69778 6.57324 4.75475 6.5619 4.81228 6.5619C4.86981 6.5619 4.92678 6.57324 4.97993 6.59525C5.03309 6.61727 5.08138 6.64954 5.12206 6.69022L6.12491 7.69395L8.4404 5.37759C8.48104 5.33684 8.52933 5.30451 8.58248 5.28245C8.63564 5.2604 8.69263 5.24904 8.75018 5.24904C8.80773 5.24904 8.86472 5.2604 8.91787 5.28245C8.97103 5.30451 9.01932 5.33684 9.05996 5.37759Z"/>
<path d="M8.98907 2.19839L8.18312 1.37231L8.80881 0.761497L9.35311 1.31893L10.1319 1.3093C10.4691 1.30531 10.8036 1.36877 11.1158 1.49595C11.4281 1.62313 11.7117 1.81145 11.9501 2.04985C12.1885 2.28826 12.3769 2.57192 12.5041 2.88417C12.6312 3.19641 12.6947 3.53093 12.6907 3.86806L12.6819 4.64689L13.2385 5.19119C13.4796 5.42674 13.6711 5.70809 13.8019 6.01872C13.9326 6.32934 14 6.66297 14 7C14 7.33703 13.9326 7.67066 13.8019 7.98128C13.6711 8.29191 13.4796 8.57326 13.2385 8.80881L12.6811 9.35311L12.6907 10.1319C12.6947 10.4691 12.6312 10.8036 12.5041 11.1158C12.3769 11.4281 12.1885 11.7117 11.9501 11.9501C11.7117 12.1885 11.4281 12.3769 11.1158 12.5041C10.8036 12.6312 10.4691 12.6947 10.1319 12.6907L9.35311 12.6819L8.80881 13.2385C8.57326 13.4796 8.29191 13.6711 7.98128 13.8019C7.67066 13.9326 7.33703 14 7 14C6.66297 14 6.32934 13.9326 6.01872 13.8019C5.70809 13.6711 5.42674 13.4796 5.19119 13.2385L4.64689 12.6811L3.86806 12.6907C3.53093 12.6947 3.19641 12.6312 2.88417 12.5041C2.57192 12.3769 2.28826 12.1885 2.04985 11.9501C1.81145 11.7117 1.62313 11.4281 1.49595 11.1158C1.36877 10.8036 1.30531 10.4691 1.3093 10.1319L1.31805 9.35311L0.761497 8.80881C0.520446 8.57326 0.328907 8.29191 0.198136 7.98128C0.0673649 7.67066 0 7.33703 0 7C0 6.66297 0.0673649 6.32934 0.198136 6.01872C0.328907 5.70809 0.520446 5.42674 0.761497 5.19119L1.31893 4.64689L1.3093 3.86806C1.30531 3.53093 1.36877 3.19641 1.49595 2.88417C1.62313 2.57192 1.81145 2.28826 2.04985 2.04985C2.28826 1.81145 2.57192 1.62313 2.88417 1.49595C3.19641 1.36877 3.53093 1.30531 3.86806 1.3093L4.64689 1.31805L5.19119 0.761497C5.42674 0.520446 5.70809 0.328907 6.01872 0.198136C6.32934 0.0673649 6.66297 0 7 0C7.33703 0 7.67066 0.0673649 7.98128 0.198136C8.29191 0.328907 8.57326 0.520446 8.80881 0.761497L8.18312 1.37231C8.02907 1.21461 7.84505 1.08929 7.64187 1.00374C7.43869 0.918178 7.22046 0.874104 7 0.874104C6.77954 0.874104 6.56131 0.918178 6.35813 1.00374C6.15495 1.08929 5.97093 1.21461 5.81688 1.37231L5.0118 2.19839L3.85668 2.18439C3.63632 2.18193 3.41768 2.22353 3.21362 2.30675C3.00956 2.38997 2.82418 2.51314 2.66839 2.66901C2.5126 2.82489 2.38953 3.01032 2.30642 3.21443C2.2233 3.41854 2.18181 3.63719 2.18439 3.85756L2.19839 5.01092L1.37231 5.81688C1.21461 5.97093 1.08929 6.15495 1.00374 6.35813C0.918178 6.56131 0.874104 6.77954 0.874104 7C0.874104 7.22046 0.918178 7.43869 1.00374 7.64187C1.08929 7.84505 1.21461 8.02907 1.37231 8.18312L2.19839 8.9882L2.18439 10.1433C2.18193 10.3637 2.22353 10.5823 2.30675 10.7864C2.38997 10.9904 2.51314 11.1758 2.66901 11.3316C2.82489 11.4874 3.01032 11.6105 3.21443 11.6936C3.41854 11.7767 3.63719 11.8182 3.85756 11.8156L5.01092 11.8016L5.81688 12.6277C5.97093 12.7854 6.15495 12.9107 6.35813 12.9963C6.56131 13.0818 6.77954 13.1259 7 13.1259C7.22046 13.1259 7.43869 13.0818 7.64187 12.9963C7.84505 12.9107 8.02907 12.7854 8.18312 12.6277L8.9882 11.8016L10.1433 11.8156C10.3637 11.8181 10.5823 11.7765 10.7864 11.6932C10.9904 11.61 11.1758 11.4869 11.3316 11.331C11.4874 11.1751 11.6105 10.9897 11.6936 10.7856C11.7767 10.5815 11.8182 10.3628 11.8156 10.1424L11.8016 8.98907L12.6277 8.18312C12.7854 8.02907 12.9107 7.84505 12.9963 7.64187C13.0818 7.43869 13.1259 7.22046 13.1259 7C13.1259 6.77954 13.0818 6.56131 12.9963 6.35813C12.9107 6.15495 12.7854 5.97093 12.6277 5.81688L11.8016 5.0118L11.8156 3.85668C11.8181 3.63632 11.7765 3.41768 11.6932 3.21362C11.61 3.00956 11.4869 2.82418 11.331 2.66839C11.1751 2.5126 10.9897 2.38953 10.7856 2.30642C10.5815 2.2233 10.3628 2.18181 10.1424 2.18439L8.98907 2.19839Z"/>
</svg>