<svg width="22" height="20" viewBox="0 0 22 20" fill="none" xmlns="http://www.w3.org/2000/svg">
<path d="M2.75 0.375C2.02065 0.375 1.32118 0.664731 0.805456 1.18046C0.289731 1.69618 0 2.39565 0 3.125L0 14.1388C0.00363485 14.8657 0.29497 15.5617 0.810302 16.0744C1.32563 16.5872 2.02303 16.875 2.75 16.875H10.3125C10.4948 16.875 10.6697 16.8026 10.7986 16.6736C10.9276 16.5447 11 16.3698 11 16.1875C11 16.0052 10.9276 15.8303 10.7986 15.7014C10.6697 15.5724 10.4948 15.5 10.3125 15.5H2.75C2.44733 15.5 2.15311 15.4002 1.91295 15.216C1.6728 15.0318 1.50014 14.7735 1.42175 14.4811L9.17675 9.7085L11 10.8016L20.625 5.02662V9.3125C20.625 9.49484 20.6974 9.66971 20.8264 9.79864C20.9553 9.92757 21.1302 10 21.3125 10C21.4948 10 21.6697 9.92757 21.7986 9.79864C21.9276 9.66971 22 9.49484 22 9.3125V3.125C22 2.39565 21.7103 1.69618 21.1945 1.18046C20.6788 0.664731 19.9793 0.375 19.25 0.375H2.75ZM7.8485 8.911L1.375 12.8944V5.02662L7.8485 8.911ZM1.375 3.42338V3.125C1.375 2.76033 1.51987 2.41059 1.77773 2.15273C2.03559 1.89487 2.38533 1.75 2.75 1.75H19.25C19.6147 1.75 19.9644 1.89487 20.2223 2.15273C20.4801 2.41059 20.625 2.76033 20.625 3.125V3.42338L11 9.19837L1.375 3.42338Z" fill="black"/>
<path d="M19.5896 17.2449C20.9784 17.2449 21.7717 16.0665 21.7717 14.4605V14.1718C21.7717 11.9663 20.13 10 17.215 10H17.1669C14.3275 10 12.375 11.87 12.375 14.719V15.0132C12.375 18.0025 14.3522 19.625 16.9922 19.625H17.0528C17.8695 19.625 18.4525 19.5232 18.7536 19.3844V18.3806C18.4167 18.5319 17.8282 18.6281 17.1311 18.6281H17.0706C15.2364 18.6281 13.5355 17.5446 13.5355 14.9775V14.7616C13.5355 12.4833 14.9903 11.0161 17.1655 11.0161H17.2205C19.3311 11.0161 20.636 12.4599 20.636 14.2144V14.3766C20.636 15.7172 20.1905 16.2879 19.7574 16.2879C19.4384 16.2879 19.1936 16.0844 19.1936 15.7104V12.6991H17.9479V13.4815H17.9066C17.7911 13.0717 17.4006 12.6153 16.5949 12.6153C15.5251 12.6153 14.8638 13.3784 14.8638 14.5403V15.2662C14.8638 16.4927 15.5375 17.238 16.5962 17.238C17.2439 17.238 17.8282 16.9259 17.9905 16.3539H18.0496C18.2119 16.9314 18.898 17.2449 19.5896 17.2449ZM16.2167 15.0614V14.7493C16.2167 13.9985 16.5289 13.6616 17.0046 13.6616C17.413 13.6616 17.7911 13.9256 17.7911 14.6351V15.1397C17.7911 15.9276 17.4432 16.1628 17.0156 16.1628C16.5289 16.1628 16.2167 15.8671 16.2167 15.0628V15.0614Z" fill="black"/>
</svg>
