<svg width="14" height="14" viewBox="0 0 14 14" xmlns="http://www.w3.org/2000/svg">
<path d="M8.53348 5.41846C9.05757 5.94343 10.0471 5.80081 10.7453 5.10173C11.4435 4.40266 11.5853 3.41135 11.0621 2.88726C10.538 2.36229 9.54841 2.50403 8.85021 3.20311C8.152 3.90306 8.01026 4.89437 8.53348 5.41846Z"/>
<path d="M13.8347 2.89776C13.5171 4.23992 12.6676 6.07029 10.6499 8.33814L10.44 10.445C10.384 10.9498 10.1582 11.4206 9.7995 11.7802L7.71539 13.8678C7.64921 13.9347 7.56358 13.9789 7.47072 13.9943C7.37787 14.0096 7.28255 13.9951 7.1984 13.953C7.11425 13.9109 7.04557 13.8432 7.00218 13.7597C6.95879 13.6762 6.94291 13.5811 6.95682 13.488L7.19305 11.8265C7.22805 11.5815 7.18168 11.3077 7.07843 10.9901C7.01299 10.7958 6.94032 10.6041 6.86057 10.4152L6.78883 10.2385C6.07575 10.0661 5.40817 9.6593 4.87183 9.12121C4.33462 8.58312 3.92777 7.91467 3.75628 7.20072L3.57867 7.1281C3.39036 7.04879 3.1992 6.97641 3.00558 6.91111C2.68798 6.80699 2.415 6.76062 2.17002 6.79562L0.511127 7.03185C0.418127 7.04553 0.323184 7.02948 0.239842 6.98601C0.1565 6.94253 0.0890163 6.87385 0.0470171 6.78975C0.00501785 6.70565 -0.00935136 6.61044 0.00595923 6.5177C0.0212698 6.42495 0.0654781 6.33941 0.132278 6.27328L2.21639 4.18567C2.57511 3.82694 3.04496 3.59946 3.5498 3.54346H3.55505L5.65491 3.33523C7.87988 1.35611 9.70151 0.509167 11.0454 0.181939C11.8241 -0.00792299 12.4366 -0.0210471 12.8653 0.0174503C13.0788 0.0375739 13.2459 0.0699468 13.364 0.0988198C13.4226 0.113694 13.469 0.127693 13.504 0.138192C13.665 0.190689 13.7481 0.251934 13.8111 0.3963L13.8365 0.460171C13.9045 0.664977 13.9506 0.876446 13.9738 1.091C14.022 1.51535 14.0185 2.12168 13.8347 2.89776ZM9.61051 9.43794L9.64551 9.40294L9.55189 10.3488C9.51764 10.6509 9.38192 10.9325 9.16692 11.1476L8.03125 12.285L8.07849 11.9525C8.14149 11.5098 8.04874 11.0837 7.928 10.7119C7.88386 10.5793 7.83601 10.448 7.78451 10.3181C8.43022 10.2613 9.06368 9.98565 9.61051 9.43794ZM4.5551 4.37466C4.00827 4.92237 3.73266 5.5567 3.67666 6.20328C3.5468 6.15176 3.4155 6.10391 3.28294 6.05979C2.91197 5.93905 2.48674 5.84631 2.04402 5.9093L1.71155 5.95655L2.84897 4.81913C3.06333 4.60389 3.34419 4.46828 3.64517 4.43415L4.5901 4.34053L4.5551 4.37466ZM12.7848 0.909015C12.4523 0.879267 11.9387 0.885392 11.2572 1.05163C9.89399 1.38411 7.83001 2.36054 5.18769 5.00724C4.64522 5.5497 4.48861 6.17966 4.5866 6.80174C4.68022 7.3932 5.0092 7.99341 5.50354 8.48863C5.99701 8.98297 6.59722 9.31195 7.18693 9.40644C7.80814 9.50444 8.43722 9.34782 8.97881 8.80448C11.6727 6.10704 12.6466 4.0413 12.965 2.69127C13.1252 2.01669 13.1225 1.51447 13.0858 1.1925C13.0768 1.10935 13.0637 1.02671 13.0464 0.944888C12.9596 0.928631 12.8728 0.916659 12.7848 0.909015Z"/>
<path d="M6.13349 10.6209C5.55171 10.3069 5.01977 9.9082 4.5551 9.43794C4.05694 8.94482 3.64024 8.37573 3.32056 7.75192C2.35637 8.61987 1.6013 12.1739 1.71154 12.2841C1.82091 12.3944 5.15531 11.501 6.13349 10.6209Z"/>
</svg>