<svg width="32" height="32" viewBox="0 0 32 32" xmlns="http://www.w3.org/2000/svg">
<path d="M24 4H20V10H24V4Z"/>
<path d="M3 3.07943e-07C2.20435 3.07943e-07 1.44129 0.316071 0.87868 0.87868C0.31607 1.44129 0 2.20435 0 3V29C0 29.7956 0.31607 30.5587 0.87868 31.1213C1.44129 31.6839 2.20435 32 3 32H29C29.7956 32 30.5587 31.6839 31.1213 31.1213C31.6839 30.5587 32 29.7956 32 29V5.828C31.9993 5.03262 31.6828 4.27007 31.12 3.708L28.294 0.878C28.0153 0.599466 27.6844 0.378567 27.3203 0.227918C26.9562 0.0772687 26.566 -0.000178218 26.172 3.07943e-07H3ZM8 12C7.46957 12 6.96086 11.7893 6.58579 11.4142C6.21071 11.0391 6 10.5304 6 10V2H26V10C26 10.5304 25.7893 11.0391 25.4142 11.4142C25.0391 11.7893 24.5304 12 24 12H8ZM6 18H26C26.5304 18 27.0391 18.2107 27.4142 18.5858C27.7893 18.9609 28 19.4696 28 20V30H4V20C4 19.4696 4.21071 18.9609 4.58579 18.5858C4.96086 18.2107 5.46957 18 6 18Z"/>
</svg>