<svg width="14" height="14" viewBox="0 0 14 14"xmlns="http://www.w3.org/2000/svg">
<path d="M2.50776 12.9938C2.43951 13.3823 2.82276 13.6859 3.16051 13.5126L7.00176 11.5386L10.8421 13.5126C11.1799 13.6859 11.5631 13.3823 11.4949 12.9946L10.7686 8.8559L13.8504 5.9194C14.1391 5.64465 13.9904 5.1424 13.6036 5.08815L9.31789 4.47915L7.40689 0.693024C7.37048 0.616277 7.31305 0.551434 7.24126 0.50603C7.16947 0.460626 7.08627 0.436523 7.00132 0.436523C6.91638 0.436523 6.83318 0.460626 6.76139 0.50603C6.6896 0.551434 6.63217 0.616277 6.59576 0.693024L4.68476 4.48002L0.399012 5.08902C0.0131369 5.14327 -0.136488 5.64552 0.151387 5.92027L3.23401 8.85677L2.50776 12.9955V12.9938ZM6.79964 10.5726L3.57439 12.2299L4.18164 8.76752C4.19586 8.68782 4.1903 8.60585 4.16543 8.5288C4.14056 8.45175 4.09715 8.38199 4.03901 8.32565L1.49626 5.9019L5.04176 5.3979C5.11518 5.38681 5.18481 5.3581 5.2447 5.31421C5.30459 5.27032 5.35295 5.21257 5.38564 5.1459L7.00001 1.94515L8.61614 5.1459C8.64882 5.21257 8.69718 5.27032 8.75707 5.31421C8.81696 5.3581 8.88659 5.38681 8.96001 5.3979L12.5055 5.90102L9.96276 8.32477C9.90449 8.38121 9.861 8.45111 9.83612 8.52833C9.81125 8.60554 9.80576 8.68769 9.82014 8.76752L10.4274 12.2299L7.20214 10.5726C7.13977 10.5405 7.07062 10.5237 7.00045 10.5237C6.93028 10.5237 6.862 10.5405 6.79964 10.5726Z"/>
</svg>