<svg width="14" height="14" viewBox="0 0 14 14" xmlns="http://www.w3.org/2000/svg">
<path d="M2.76499 8.81999C1.95036 8.81999 1.49886 8.38862 1.45774 7.82949H2.02911C2.08599 8.13224 2.37561 8.33962 2.80874 8.33962C3.26724 8.33962 3.53499 8.12437 3.53499 7.79712C3.53499 7.532 3.35736 7.38849 2.97761 7.29662L2.40361 7.15312C1.86986 7.0245 1.54786 6.70687 1.54786 6.20987C1.54786 5.59212 2.07024 5.17387 2.81136 5.17387C3.55774 5.17387 4.02411 5.5895 4.06786 6.125H3.50349C3.44749 5.845 3.19549 5.65075 2.80611 5.65075C2.39311 5.65075 2.13236 5.866 2.13236 6.17575C2.13236 6.40412 2.30386 6.55812 2.61624 6.63249L3.18849 6.77337C3.77736 6.91687 4.11599 7.19949 4.11599 7.74462C4.11599 8.38862 3.61374 8.81999 2.76499 8.81999ZM5.76361 8.75H5.18174V5.74874H4.15886V5.25H6.78911V5.74699H5.76361V8.75Z"/>
<path fill-rule="evenodd" clip-rule="evenodd" d="M9.66438 6.76375V7.23975C9.66438 8.22938 9.10788 8.81913 8.211 8.81913C7.31325 8.81913 6.755 8.22938 6.755 7.23975V6.76375C6.755 5.76975 7.31325 5.18263 8.211 5.18263C9.10788 5.18263 9.66438 5.77238 9.66438 6.76375ZM9.07463 7.24238V6.7585C9.07463 6.03488 8.70538 5.67875 8.211 5.67875C7.7105 5.67875 7.34475 6.03488 7.34475 6.7585V7.24238C7.34475 7.96863 7.7105 8.32475 8.211 8.32475C8.70538 8.32475 9.07463 7.96775 9.07463 7.24238ZM10.0809 5.25088H11.424C12.1415 5.25088 12.5755 5.73213 12.5755 6.38138C12.5755 7.035 12.1371 7.50925 11.4196 7.50925H10.6628V8.75H10.0809V5.25088ZM11.3374 7.03238C11.7425 7.03238 11.9805 6.79438 11.9805 6.38138C11.9805 5.96838 11.7425 5.733 11.3374 5.733H10.6601V7.03238H11.3374Z"/>
<path fill-rule="evenodd" clip-rule="evenodd" d="M4.28137 0C4.16557 2.46041e-05 4.05449 0.0459647 3.9725 0.12775L0.12775 3.9725C0.0459647 4.05449 2.46041e-05 4.16557 0 4.28137V9.71863C2.46041e-05 9.83443 0.0459647 9.94551 0.12775 10.0275L3.9725 13.8722C4.05449 13.954 4.16557 14 4.28137 14H9.71863C9.83443 14 9.94551 13.954 10.0275 13.8722L13.8722 10.0275C13.954 9.94551 14 9.83443 14 9.71863V4.28137C14 4.16557 13.954 4.05449 13.8722 3.9725L10.0275 0.12775C9.94551 0.0459647 9.83443 2.46041e-05 9.71863 0H4.28137ZM0.875 4.4625L4.4625 0.875H9.5375L13.125 4.4625V9.5375L9.5375 13.125H4.4625L0.875 9.5375V4.4625Z"/>
</svg>