<svg width="14" height="14" viewBox="0 0 14 14" xmlns="http://www.w3.org/2000/svg">
<path d="M0.874895 0.000781178L0 0.875676L1.92477 3.57123C2.0058 3.68474 2.11279 3.77723 2.23682 3.841C2.36086 3.90477 2.49834 3.93796 2.63781 3.93781H2.69905C2.81408 3.93772 2.928 3.96031 3.03429 4.0043C3.14058 4.04828 3.23715 4.1128 3.31848 4.19415L5.65882 6.53449L3.36922 8.85646C2.97761 8.74119 2.56453 8.71875 2.16274 8.79093C1.76095 8.86312 1.3815 9.02794 1.05451 9.27231C0.727514 9.51669 0.461962 9.8339 0.278919 10.1988C0.0958764 10.5637 0.00037813 10.9662 0 11.3744C0.000524467 11.7506 0.0818934 12.1222 0.238594 12.4642C0.395294 12.8061 0.623665 13.1104 0.908233 13.3564C1.1928 13.6024 1.52692 13.7843 1.88795 13.8899C2.24898 13.9955 2.62848 14.0222 3.00075 13.9684C3.37302 13.9145 3.72936 13.7812 4.04562 13.5775C4.36188 13.3739 4.63068 13.1047 4.8338 12.7881C5.03692 12.4715 5.16961 12.1149 5.2229 11.7425C5.27618 11.3702 5.24881 10.9907 5.14263 10.6299L7.4646 8.34028L8.3115 9.18717L8.04465 9.98683C7.99338 10.141 7.98603 10.3063 8.02342 10.4644C8.06082 10.6225 8.14148 10.767 8.25638 10.8818L11.1173 13.7427C11.1983 13.8243 11.2947 13.889 11.4009 13.9331C11.507 13.9773 11.6209 14 11.7358 14C11.8508 14 11.9646 13.9773 12.0708 13.9331C12.1769 13.889 12.2733 13.8243 12.3544 13.7427L13.742 12.3552C13.8235 12.2741 13.8882 12.1777 13.9323 12.0716C13.9765 11.9654 13.9992 11.8516 13.9992 11.7366C13.9992 11.6216 13.9765 11.5078 13.9323 11.4017C13.8882 11.2955 13.8235 11.1991 13.742 11.1181L10.8811 8.25716C10.7662 8.14226 10.6217 8.0616 10.4636 8.0242C10.3055 7.98681 10.1402 7.99416 9.98605 8.04544L9.18639 8.31228L8.34649 7.47238L10.6912 5.16003C11.0802 5.26386 11.4878 5.27698 11.8826 5.19837C12.2775 5.11975 12.649 4.95151 12.9685 4.70662C13.2881 4.46173 13.5471 4.14672 13.7256 3.78589C13.9042 3.42506 13.9975 3.02805 13.9983 2.62546C13.9983 2.39012 13.9677 2.16177 13.9091 1.94567L12.0368 3.81882L10.4987 3.50036L10.1803 1.96317L12.0534 0.0900204C11.6078 -0.0297865 11.1385 -0.0300102 10.6928 0.0893721C10.2471 0.208754 9.84077 0.443523 9.51473 0.770014C9.18868 1.09651 8.95446 1.50318 8.83569 1.94904C8.71691 2.39491 8.71777 2.86421 8.83819 3.30963L6.52846 5.6526L4.19337 3.31926C4.02928 3.15522 3.93708 2.93272 3.93703 2.70071V2.63859C3.93704 2.49927 3.90378 2.36196 3.84002 2.23809C3.77626 2.11422 3.68384 2.00737 3.57044 1.92642L0.874895 0.000781178ZM9.31413 9.31491C9.35476 9.27417 9.40304 9.24185 9.45618 9.2198C9.50933 9.19774 9.5663 9.18639 9.62384 9.18639C9.68138 9.18639 9.73835 9.19774 9.7915 9.2198C9.84464 9.24185 9.89292 9.27417 9.93355 9.31491L12.483 11.8652C12.5627 11.9477 12.6068 12.0582 12.6058 12.1729C12.6048 12.2876 12.5588 12.3973 12.4777 12.4784C12.3966 12.5596 12.2868 12.6056 12.1721 12.6066C12.0574 12.6076 11.9469 12.5635 11.8644 12.4838L9.31413 9.93433C9.27339 9.8937 9.24107 9.84543 9.21902 9.79228C9.19696 9.73913 9.18561 9.68216 9.18561 9.62462C9.18561 9.56708 9.19696 9.51011 9.21902 9.45696C9.24107 9.40382 9.27339 9.35554 9.31413 9.31491ZM2.62468 9.62462L3.03676 9.83635L3.49958 9.85909L3.75067 10.2484L4.14 10.4995L4.16275 10.9623L4.37447 11.3744L4.16275 11.7865L4.14 12.2493L3.75067 12.5004L3.49958 12.8897L3.03676 12.9125L2.62468 13.1242L2.21261 12.9125L1.74979 12.8897L1.49869 12.5004L1.10937 12.2493L1.08662 11.7865L0.874895 11.3744L1.08662 10.9623L1.10937 10.4995L1.49869 10.2484L1.74979 9.85909L2.21261 9.83635L2.62468 9.62462Z"/>
</svg>