<svg width="17" height="15" viewBox="0 0 17 15" xmlns="http://www.w3.org/2000/svg">
<path d="M0.507192 9.92804C0.641708 9.92804 0.770715 9.98148 0.865832 10.0766C0.960949 10.1717 1.01438 10.3007 1.01438 10.4352V12.9712C1.01438 13.2402 1.12126 13.4982 1.31149 13.6885C1.50173 13.8787 1.75974 13.9856 2.02877 13.9856H14.2014C14.4704 13.9856 14.7284 13.8787 14.9187 13.6885C15.1089 13.4982 15.2158 13.2402 15.2158 12.9712V10.4352C15.2158 10.3007 15.2692 10.1717 15.3643 10.0766C15.4594 9.98148 15.5884 9.92804 15.723 9.92804C15.8575 9.92804 15.9865 9.98148 16.0816 10.0766C16.1767 10.1717 16.2302 10.3007 16.2302 10.4352V12.9712C16.2302 13.5093 16.0164 14.0253 15.6359 14.4058C15.2555 14.7862 14.7395 15 14.2014 15H2.02877C1.49071 15 0.974681 14.7862 0.594213 14.4058C0.213745 14.0253 0 13.5093 0 12.9712V10.4352C0 10.3007 0.0534362 10.1717 0.148553 10.0766C0.24367 9.98148 0.372677 9.92804 0.507192 9.92804Z"/>
<path d="M8.47417 1.04901C8.42706 1.00178 8.37109 0.964301 8.30947 0.938732C8.24785 0.913163 8.18179 0.900001 8.11508 0.900001C8.04836 0.900001 7.98231 0.913163 7.92069 0.938732C7.85907 0.964301 7.8031 1.00178 7.75599 1.04901L4.71283 4.09216C4.61759 4.1874 4.56409 4.31657 4.56409 4.45126C4.56409 4.58594 4.61759 4.71511 4.71283 4.81035C4.80807 4.90558 4.93724 4.95909 5.07192 4.95909C5.20661 4.95909 5.33578 4.90558 5.43102 4.81035L7.60789 2.63246L7.60788 11.552C7.60788 11.6865 7.66132 11.8155 7.75644 11.9106C7.85155 12.0057 7.98056 12.0591 8.11508 12.0591C8.24959 12.0591 8.3786 12.0057 8.47372 11.9106C8.56883 11.8155 8.62227 11.6865 8.62227 11.552L8.62227 2.63246L10.7991 4.81035C10.8944 4.90559 11.0235 4.95909 11.1582 4.95909C11.2929 4.95909 11.4221 4.90559 11.5173 4.81035C11.6126 4.71511 11.6661 4.58594 11.6661 4.45126C11.6661 4.31657 11.6126 4.1874 11.5173 4.09216L8.47417 1.04901Z"/>
</svg>