<svg width="14" height="9" viewBox="0 0 14 9" xmlns="http://www.w3.org/2000/svg">
<path d="M11.8052 2.34461C11.577 2.37075 11.3865 2.50985 11.2885 2.70356L11.2866 2.7073C11.1466 2.90054 11.0416 3.12926 10.9856 3.37619L10.9832 3.38879C10.9576 3.50875 10.9431 3.64598 10.9431 3.78695C10.9431 3.79395 10.9431 3.80049 10.9431 3.80749V3.80655C10.9459 3.99467 10.9832 4.17344 11.05 4.33728L11.0462 4.32748C11.1321 4.55013 11.247 4.67102 11.3842 4.6995C11.3991 4.7009 11.4169 4.70183 11.4346 4.70183C11.5989 4.70183 11.7464 4.62995 11.8472 4.51652L11.8477 4.51605C12.0731 4.2948 12.2291 4.00353 12.2813 3.67772L12.2823 3.66932C12.307 3.54283 12.3219 3.39626 12.3229 3.24689V3.24596C12.3205 3.05785 12.2827 2.87907 12.216 2.71523L12.2197 2.72504C12.1334 2.50238 12.019 2.38196 11.8813 2.35348C11.8584 2.34881 11.8323 2.34555 11.8052 2.34508V2.34461ZM8.21665 2.34461C7.9884 2.37075 7.79795 2.50985 7.69993 2.70356L7.69806 2.7073C7.55803 2.90054 7.45301 3.12926 7.39699 3.37619L7.39466 3.38879C7.36899 3.50735 7.35405 3.64365 7.35405 3.78322C7.35405 3.79115 7.35405 3.79955 7.35405 3.80749V3.80609C7.35685 3.9942 7.39419 4.17297 7.46094 4.33681L7.45721 4.32701C7.54309 4.54966 7.65745 4.67056 7.79515 4.69903C7.81009 4.70043 7.82783 4.70136 7.84556 4.70136C8.00987 4.70136 8.15737 4.62948 8.25819 4.51605L8.25866 4.51559C8.48411 4.29433 8.64002 4.00307 8.69229 3.67726L8.69323 3.66886C8.7189 3.54983 8.73384 3.4126 8.73384 3.2721C8.73384 3.26276 8.73384 3.25343 8.73384 3.24409V3.24549C8.7315 3.05738 8.69416 2.8786 8.62788 2.71477L8.63115 2.72457C8.54479 2.50192 8.43043 2.38149 8.29274 2.35302C8.26986 2.34835 8.24372 2.34508 8.21665 2.34508V2.34461ZM11.7786 1.38492C11.8888 1.38586 11.9952 1.39846 12.0979 1.4218L12.0881 1.41993C12.4853 1.49555 12.8139 1.74107 13.0006 2.07622L13.0039 2.08275C13.1771 2.38709 13.2793 2.75164 13.2793 3.13953C13.2793 3.16427 13.2788 3.18901 13.2779 3.21375V3.21002C13.2779 3.21842 13.2779 3.22775 13.2779 3.23756C13.2779 3.82616 13.1117 4.37602 12.8242 4.8428L12.8317 4.82973C12.5819 5.33338 12.076 5.67646 11.4887 5.68813H11.4873C11.3772 5.68719 11.2708 5.67459 11.1681 5.65172L11.1783 5.65359C10.7806 5.57797 10.452 5.33198 10.2658 4.99637L10.2625 4.98983C10.0889 4.68129 9.98713 4.31207 9.98713 3.91951C9.98713 3.89758 9.9876 3.87517 9.98806 3.85323V3.8565C9.98806 3.84763 9.98806 3.83736 9.98806 3.82663C9.98806 3.24036 10.1542 2.6933 10.4418 2.22932L10.4343 2.24239C10.6868 1.74061 11.1914 1.39893 11.7772 1.38399H11.7791L11.7786 1.38492ZM8.19051 1.38492C8.30067 1.38586 8.40709 1.39846 8.50979 1.4218L8.49998 1.41993C8.89674 1.49695 9.22489 1.74201 9.41253 2.07622L9.4158 2.08275C9.58897 2.38709 9.69119 2.75118 9.69119 3.13953C9.69119 3.16427 9.69073 3.18901 9.68979 3.21375V3.21002C9.68979 3.21842 9.68979 3.22775 9.68979 3.23756C9.68979 3.82616 9.52362 4.37602 9.23562 4.8428L9.24309 4.82973C8.99337 5.33338 8.48738 5.67646 7.90018 5.68813H7.89878C7.78862 5.68719 7.68219 5.67459 7.5795 5.65172L7.58977 5.65359C7.19208 5.57797 6.86347 5.33198 6.67722 4.99637L6.67396 4.98983C6.50032 4.68129 6.39809 4.31207 6.39809 3.91951C6.39809 3.89758 6.39856 3.87517 6.39903 3.85323V3.8565C6.39903 3.84763 6.39903 3.83736 6.39903 3.82709C6.39903 3.24082 6.5652 2.69376 6.8532 2.22979L6.84573 2.24286C7.09826 1.74107 7.60284 1.39939 8.18864 1.38446H8.19051V1.38492ZM6.01207 0.765045C6.13156 0.767379 6.24032 0.811256 6.32481 0.882206L6.32388 0.881739C6.4247 0.95829 6.49145 1.07452 6.50125 1.20708V1.20848C6.50218 1.22062 6.50265 1.23415 6.50265 1.24816C6.50265 1.33404 6.48071 1.4148 6.44244 1.48481L6.44384 1.48201C6.16984 2.08462 5.97379 2.78338 5.89211 3.51669L5.88931 3.54796C5.78428 4.10903 5.72407 4.75458 5.72407 5.41413C5.72407 5.52476 5.72594 5.63538 5.7292 5.74507L5.72874 5.72874C5.73107 5.75021 5.73247 5.77541 5.73247 5.80062C5.73247 5.91218 5.7054 6.0172 5.65825 6.10963L5.66012 6.10589C5.60271 6.22118 5.49021 6.30147 5.35812 6.31174H5.35672C5.35485 6.31174 5.35252 6.31174 5.35018 6.31174C5.17094 6.31174 5.01084 6.23005 4.90534 6.10169L4.90441 6.10076C4.30974 5.43 3.86957 4.60848 3.64738 3.70153L3.63945 3.66279C3.36001 4.20954 3.08523 4.75878 2.81512 5.31051C2.47811 5.95792 2.19151 6.28933 1.95112 6.3066C1.79662 6.31827 1.66546 6.18664 1.55016 5.91171C1.14453 4.67336 0.81359 3.20348 0.618944 1.69159L0.605875 1.56743C0.601674 1.54269 0.59934 1.51422 0.59934 1.48528C0.59934 1.37232 0.636215 1.2673 0.698763 1.18281L0.69783 1.18421C0.782316 1.07685 0.912079 1.00777 1.05818 1.00683C1.08245 1.0017 1.10999 0.9989 1.138 0.9989C1.36905 0.9989 1.55623 1.18608 1.55623 1.41713C1.55623 1.4176 1.55623 1.41806 1.55623 1.41853C1.7336 2.61488 1.92825 3.62825 2.1341 4.45771L3.38739 2.07202C3.45787 1.88997 3.61891 1.75788 3.81356 1.72894L3.81636 1.72847C4.06795 1.7112 4.22245 1.8713 4.28547 2.20925C4.42036 2.95469 4.60848 3.61191 4.85447 4.24019L4.82926 4.16691C4.88947 3.01537 5.1616 1.94132 5.60738 0.963891L5.58497 1.01897C5.65452 0.874737 5.79595 0.775314 5.96212 0.767379H5.96306C5.97924 0.765823 5.99558 0.765045 6.01207 0.765045ZM1.29904 0.000466742C0.581602 0.000933517 0 0.582536 0 1.29997C0 1.30184 0 1.3037 0 1.30557V5.65499C0 6.37522 0.583936 6.96009 1.30464 6.96009H6.70243L9.16934 8.33381L8.60827 6.96009H12.6949C12.6949 6.96009 12.6954 6.96009 12.6958 6.96009C13.4161 6.96009 14 6.37615 14 5.65592C14 5.65545 14 5.65545 14 5.65499V1.3051C14 1.30464 14 1.30464 14 1.30417C14 0.583936 13.4161 0 12.6958 0C12.6954 0 12.6954 0 12.6949 0L1.29904 0.000466742Z"/>
</svg>