<svg width="14" height="14" viewBox="0 0 14 14" xmlns="http://www.w3.org/2000/svg">
<path d="M0.995096 6.99981C0.995096 9.37673 2.37644 11.4309 4.37949 12.4043L1.515 4.55592C1.1818 5.30276 0.995096 6.12923 0.995096 6.99981Z"/>
<path d="M11.054 6.69675C11.054 5.95461 10.7874 5.44065 10.5587 5.04061C10.2543 4.54596 9.96903 4.12707 9.96903 3.63242C9.96903 3.0804 10.3877 2.56656 10.9774 2.56656C11.004 2.56656 11.0293 2.56987 11.0552 2.57136C9.98685 1.59257 8.56346 0.994967 7.0001 0.994967C4.90221 0.994967 3.0565 2.07134 1.98276 3.70166C2.12365 3.70589 2.25642 3.70886 2.3692 3.70886C2.99731 3.70886 3.96958 3.63264 3.96958 3.63264C4.2933 3.61356 4.33146 4.08902 4.00809 4.12729C4.00809 4.12729 3.68278 4.16557 3.32079 4.18454L5.50758 10.689L6.82173 6.74772L5.88614 4.18431C5.56277 4.16534 5.25643 4.12706 5.25643 4.12706C4.93283 4.1081 4.97077 3.61333 5.29436 3.63242C5.29436 3.63242 6.28606 3.70863 6.87612 3.70863C7.50412 3.70863 8.47651 3.63242 8.47651 3.63242C8.80045 3.61333 8.8385 4.08879 8.51502 4.12706C8.51502 4.12706 8.18902 4.16534 7.82772 4.18431L9.99782 10.6396L10.5968 8.63799C10.8564 7.8074 11.054 7.21083 11.054 6.69675Z"/>
<path d="M7.10532 7.5248L5.3036 12.7603C5.84156 12.9184 6.41048 13.0049 6.99997 13.0049C7.69927 13.0049 8.36988 12.884 8.99411 12.6645C8.978 12.6388 8.96337 12.6115 8.95137 12.5818L7.10532 7.5248Z"/>
<path d="M12.269 4.11855C12.2948 4.30983 12.3094 4.51516 12.3094 4.73604C12.3094 5.34541 12.1956 6.03042 11.8528 6.88695L10.0185 12.1903C11.8038 11.1492 13.0046 9.21508 13.0046 6.99973C13.0047 5.95569 12.738 4.97394 12.269 4.11855Z"/>
<path d="M7.00006 0C3.14032 0 0 3.1401 0 6.99983C0 10.86 3.14032 14 7.00006 14C10.8597 14 14.0005 10.86 14.0005 6.99983C14.0003 3.1401 10.8597 0 7.00006 0ZM7.00006 13.6791C3.31732 13.6791 0.320968 10.6828 0.320968 6.99983C0.320968 3.31709 3.31721 0.320968 7.00006 0.320968C10.6827 0.320968 13.6788 3.31709 13.6788 6.99983C13.6788 10.6828 10.6827 13.6791 7.00006 13.6791Z"/>
</svg>